<svg xmlns="http://www.w3.org/2000/svg" viewBox="0 0 449.99 449.99"><defs><style>.cls-1{fill:#fce1d0;}.cls-2{fill:#fff6ee;}.cls-3{fill:#f9eade;}.cls-4{fill:#492e27;}.cls-5{fill:#db8c82;}.cls-6{fill:#d9a39a;}.cls-7{font-size:36.73px;font-family:Dungeon-Regular, Dungeon;}</style></defs><title>logo</title><g id="OBJECTS"><circle class="cls-1" cx="225" cy="225" r="225"/><path class="cls-2" d="M452,260.42c-7.82-22-25.42-37.72-46.34-38.6-16.58-.7-30.5,9.12-41.3,22.54,0-.66-.08-1.3-.13-1.92-.58-8.71-1.31-14-1.31-14,0,10.78-58.8,19.5-131.34,19.5s-131.35-8.72-131.35-19.5c0,0-12.41,89.24,24.15,141.17A89.87,89.87,0,0,0,134.83,382c30.18,29.74,42.62,24.3,44.93,40.91.67,4.81,3.88,8.63,8,9.73,7.5,2,21.2,4.42,43.86,4.42s36.35-2.41,43.85-4.42c4.1-1.1,7.31-4.92,8-9.73,2.31-16.61,14.75-11.17,44.93-40.91a90,90,0,0,0,11-13.19c-3.19,9.17-2.92,19.7,2.08,28.36,4.14,7.18,13.12,10.54,19.67,5.42,6-4.73,8.93-14.44,5-22l.34-.39a17.69,17.69,0,0,1,8.08-3.77c9.34-2.85,18.56-5.27,27.49-9.66,18.24-9,34.16-22.58,44.54-42.37C456.39,305.69,459.29,280.88,452,260.42Zm-24.64,29c0,.09-.06.36-.14.93-.27,2.07-.63,4.12-1.08,6.13-.21.93-.45,1.86-.7,2.78-.06.11-.62,1.83-.79,2.28-.7,1.83-1.47,3.61-2.31,5.36-.47,1-1,1.95-1.5,2.95-.09.19-.6,1.11-.76,1.4a70,70,0,0,1-7.32,9.57c-.55.59-1.09,1.18-1.64,1.76L409.68,324l-.74.67c-.81.68-1.6,1.36-2.42,2A92.9,92.9,0,0,1,395,334.46c-5.65,3.27-14.54,6.41-21.83,8.45-9.41,2.63-19.18,5.55-26.37,13.33,10.59-20.9,15.3-45.43,17.14-67.37,5.14,0,10-3.42,12.78-8.84,1.09-2.12,2.2-4.23,3.38-6.29l.72-1.17,1.32-1.94c1.18-1.68,2.4-3.32,3.69-4.87s3.37-3.72,3.61-3.92c2.89-2.51,6.44-4.9,8.61-5.62,3.26-1.07,6-1.68,8.22-1.46a18.39,18.39,0,0,1,6.94,2.32c.86.49,1.67,1.05,2.51,1.58,0,0,.36.25.68.47l1.46,1.28c.91.9,1.73,1.91,2.64,2.81.17.17.82,1,1,1.18l.68,1.12a43.63,43.63,0,0,1,2.42,4.59c.15.38.55,1.3.58,1.43.36,1.11.69,2.22,1,3.36s.53,2.27.77,3.43c.05.26.18,1.31.23,1.57a63.49,63.49,0,0,1,.27,6.62C427.45,287.46,427.43,288.43,427.38,289.39Z" transform="translate(-25 -34.54)"/><path class="cls-3" d="M452,260.42c-7.82-22-25.42-37.72-46.34-38.6-16.58-.7-30.5,9.12-41.3,22.54,0-.66-.08-1.3-.13-1.92A227,227,0,0,1,314.86,313c-39.8,38.5-93.62,59.35-148.8,60a223.6,223.6,0,0,1-41.66-3.38A89.87,89.87,0,0,0,134.83,382c30.18,29.74,42.62,24.3,44.93,40.91.67,4.81,3.88,8.63,8,9.73,7.5,2,21.2,4.42,43.86,4.42s36.35-2.41,43.85-4.42c4.1-1.1,7.31-4.92,8-9.73,2.31-16.61,14.75-11.17,44.93-40.91a90,90,0,0,0,11-13.19c-3.19,9.17-2.92,19.7,2.08,28.36,4.14,7.18,13.12,10.54,19.67,5.42,6-4.73,8.93-14.44,5-22l.34-.39a17.69,17.69,0,0,1,8.08-3.77c9.34-2.85,18.56-5.27,27.49-9.66,18.24-9,34.16-22.58,44.54-42.37C456.39,305.69,459.29,280.88,452,260.42Zm-24.64,29c0,.09-.06.36-.14.93-.27,2.07-.63,4.12-1.08,6.13-.21.93-.45,1.86-.7,2.78-.06.11-.62,1.83-.79,2.28-.7,1.83-1.47,3.61-2.31,5.36-.47,1-1,1.95-1.5,2.95-.09.19-.6,1.11-.76,1.4a70,70,0,0,1-7.32,9.57c-.55.59-1.09,1.18-1.64,1.76L409.68,324l-.74.67c-.81.68-1.6,1.36-2.42,2A92.9,92.9,0,0,1,395,334.46c-5.65,3.27-14.54,6.41-21.83,8.45-9.41,2.63-19.18,5.55-26.37,13.33,10.59-20.9,15.3-45.43,17.14-67.37,5.14,0,10-3.42,12.78-8.84,1.09-2.12,2.2-4.23,3.38-6.29l.72-1.17,1.32-1.94c1.18-1.68,2.4-3.32,3.69-4.87s3.37-3.72,3.61-3.92c2.89-2.51,6.44-4.9,8.61-5.62,3.26-1.07,6-1.68,8.22-1.46a18.39,18.39,0,0,1,6.94,2.32c.86.49,1.67,1.05,2.51,1.58,0,0,.36.25.68.47l1.46,1.28c.91.9,1.73,1.91,2.64,2.81.17.17.82,1,1,1.18l.68,1.12a43.63,43.63,0,0,1,2.42,4.59c.15.38.55,1.3.58,1.43.36,1.11.69,2.22,1,3.36s.53,2.27.77,3.43c.05.26.18,1.31.23,1.57a63.49,63.49,0,0,1,.27,6.62C427.45,287.46,427.43,288.43,427.38,289.39Z" transform="translate(-25 -34.54)"/><path class="cls-2" d="M362.94,228.47c0,2.46-3.07,4.82-8.68,7-18.92-7.31-66.7-12.5-122.66-12.5s-103.75,5.19-122.67,12.5c-5.61-2.17-8.68-4.53-8.68-7,0-10.77,58.8-19.49,131.35-19.49S362.94,217.7,362.94,228.47Z" transform="translate(-25 -34.54)"/><path class="cls-4" d="M354.26,237a1.4,1.4,0,0,1-.54-.1c-19.2-7.42-68.27-12.4-122.12-12.4s-102.94,5-122.13,12.4a1.54,1.54,0,0,1-1.08,0c-6.49-2.51-9.64-5.25-9.64-8.39,0-6.22,13.37-11.35,39.75-15.27,24.87-3.69,57.93-5.72,93.1-5.72s68.22,2,93.09,5.72c26.37,3.92,39.75,9.05,39.75,15.27,0,3.14-3.16,5.88-9.64,8.39A1.47,1.47,0,0,1,354.26,237ZM231.6,210.48c-35,0-67.93,2-92.66,5.69-27.45,4.07-37.19,9.17-37.19,12.3,0,.76.71,2.79,7.19,5.38,20.14-7.53,68.12-12.39,122.66-12.39s102.5,4.86,122.65,12.39c6.47-2.59,7.19-4.62,7.19-5.38,0-3.13-9.74-8.23-37.19-12.3C299.52,212.5,266.61,210.48,231.6,210.48Z" transform="translate(-25 -34.54)"/><path class="cls-4" d="M354.26,235.46C335.34,242.78,287.56,248,231.6,248s-103.75-5.19-122.67-12.51c18.92-7.31,66.7-12.5,122.67-12.5S335.34,228.15,354.26,235.46Z" transform="translate(-25 -34.54)"/><path class="cls-4" d="M231.6,249.47c-55,0-103.41-4.95-123.21-12.61a1.5,1.5,0,0,1,0-2.8c19.81-7.65,68.17-12.6,123.21-12.6s103.39,4.95,123.2,12.6a1.5,1.5,0,0,1,0,2.8C335,244.52,286.64,249.47,231.6,249.47Zm-118.07-14c21.45,6.64,67.67,11,118.07,11s96.6-4.37,118-11c-21.45-6.64-67.66-11-118-11S135,228.82,113.53,235.46Z" transform="translate(-25 -34.54)"/><path class="cls-4" d="M231.6,438.57c-22.79,0-36.64-2.43-44.25-4.47-4.77-1.28-8.33-5.59-9.08-11-1.14-8.23-4.86-10.51-13-15.49a157.25,157.25,0,0,1-31.51-24.56C108,357.72,99.89,316.93,97.6,287.18a308.5,308.5,0,0,1,1.16-58.92,1.5,1.5,0,0,1,3,.21c0,3.13,9.74,8.24,37.19,12.31,24.73,3.67,57.63,5.69,92.66,5.69s67.92-2,92.65-5.69c27.45-4.07,37.19-9.18,37.19-12.31a1.51,1.51,0,0,1,1.39-1.5,1.48,1.48,0,0,1,1.59,1.29c0,.06.65,4.68,1.2,12.28,12.11-13.84,25.92-20.8,40.12-20.22,20.75.87,39.47,16.42,47.69,39.6,7.14,20.09,5,45.06-5.51,65.16-9.75,18.58-25,33.06-45.21,43-7.61,3.73-15.54,6.1-23.22,8.39l-4.5,1.36a26.74,26.74,0,0,0-5.46,2c-.55.34-1.08.72-1.57,1.08,3.25,7.61.72,17.62-5.93,22.84a13,13,0,0,1-10.61,2.53,17.16,17.16,0,0,1-11.28-8.38,34.5,34.5,0,0,1-4-22.3,86,86,0,0,1-6.73,7.45,157.25,157.25,0,0,1-31.51,24.56c-8.13,5-11.84,7.26-13,15.49-.75,5.39-4.31,9.69-9.07,11C268.23,436.14,254.38,438.57,231.6,438.57ZM101.25,232.93c-2,20.1-7.88,106.13,34.63,148a154.81,154.81,0,0,0,31,24.14c8.42,5.16,13.05,8,14.39,17.63.58,4.13,3.34,7.54,6.89,8.49,7.43,2,21,4.37,43.47,4.37s36-2.38,43.46-4.37c3.54-.95,6.31-4.36,6.88-8.49,1.34-9.63,6-12.47,14.4-17.63a154.82,154.82,0,0,0,31-24.14,88.6,88.6,0,0,0,10.82-13,1.5,1.5,0,0,1,2.65,1.34c-3.27,9.41-2.55,19.29,2,27.12a14.16,14.16,0,0,0,9.25,6.94,9.93,9.93,0,0,0,8.19-1.95c5.14-4,8.36-12.88,4.62-20.16a1.5,1.5,0,0,1,.24-1.71l.24-.28.28-.28c.69-.52,1.51-1.13,2.39-1.68A27.2,27.2,0,0,1,374,375l4.6-1.38c7.91-2.36,15.38-4.59,22.76-8.22,19.66-9.67,34.42-23.7,43.87-41.72,10-19.09,12.11-43.72,5.34-62.76h0c-7.81-22-25.47-36.78-45-37.6-14.35-.62-27.84,6.79-40.06,22a1.53,1.53,0,0,1-1.63.49,1.5,1.5,0,0,1-1-1.34c-.3-4.85-.65-8.8-.94-11.53-5,4.26-17.46,7.89-37.25,10.83-24.87,3.69-57.93,5.72-93.09,5.72s-68.23-2-93.1-5.72C118.72,240.81,106.25,237.19,101.25,232.93ZM346.81,357.74a1.5,1.5,0,0,1-1.34-2.18c9-17.86,14.76-40.34,17-66.81a1.51,1.51,0,0,1,1.49-1.38c4.57,0,8.95-3.1,11.45-8,1-1.9,2.14-4.14,3.42-6.36,0,0,.46-.74.73-1.2s.78-1.14,1.09-1.59l.28-.42c1.35-1.93,2.59-3.55,3.77-5,1.44-1.72,3.46-3.82,3.8-4.11,2.66-2.31,6.52-5,9.1-5.89,3.89-1.28,6.62-1.75,8.84-1.53a19.59,19.59,0,0,1,7.54,2.51c.61.34,1.19.72,1.78,1.1l.75.49a4.39,4.39,0,0,1,.41.28l.36.25.14.11,1.46,1.28c.54.52,1,1,1.44,1.52s.83.91,1.26,1.34c.1.1.32.36.55.64s.35.43.45.53a2.42,2.42,0,0,1,.25.31c.21.37.44.74.66,1.1a44.59,44.59,0,0,1,2.51,4.76l.26.62c.26.61.35.84.4,1,.38,1.18.7,2.29,1,3.41s.54,2.32.79,3.51c0,.16.08.52.13.88s.08.59.1.71a.59.59,0,0,1,0,.14,64,64,0,0,1,.28,6.77c0,1,0,2-.08,2.94a2,2,0,0,1,0,.24c0,.11,0,.35-.12.82-.27,2.1-.64,4.21-1.1,6.25-.22,1-.46,1.9-.72,2.84a1.42,1.42,0,0,1-.07.22c-.06.15-.2.56-.34,1s-.34,1-.42,1.22c-.7,1.83-1.49,3.67-2.36,5.48-.25.54-.53,1.07-.81,1.6s-.47.89-.69,1.35c-.08.18-.55,1-.75,1.39a.83.83,0,0,0-.09.16,71,71,0,0,1-7.48,9.77l-.57.62-1.09,1.17-1.49,1.48-1.48,1.3c-.6.51-1.19,1-1.8,1.5a94.37,94.37,0,0,1-11.7,7.9c-5,2.9-13.3,6.11-22.18,8.59-8.26,2.31-18.53,5.18-25.67,12.91A1.49,1.49,0,0,1,346.81,357.74Zm18.52-67.45c-2.06,23.22-6.8,43.4-14.12,60.13,6.85-4.84,14.85-7.08,21.56-8.95,8.65-2.42,16.68-5.53,21.49-8.31a89.76,89.76,0,0,0,11.32-7.64c.59-.47,1.16-1,1.74-1.45l1.35-1.18c.39-.39,1.29-1.3,1.45-1.44l1-1.07.56-.61a69.33,69.33,0,0,0,7.15-9.34c.18-.35.58-1.07.67-1.25.24-.5.49-1,.74-1.46s.52-1,.76-1.49c.84-1.74,1.6-3.51,2.27-5.26.07-.19.23-.66.38-1.11.22-.65.32-.95.39-1.12.23-.87.46-1.74.65-2.62.44-1.95.8-4,1.06-6,.06-.45.11-.74.13-.91.05-.91.07-1.83.08-2.72a62.64,62.64,0,0,0-.26-6.4c0-.17-.07-.48-.11-.78s-.08-.59-.11-.71c-.23-1.13-.47-2.25-.75-3.34s-.59-2.13-1-3.27v0c-.05-.13-.17-.42-.29-.69l-.25-.61a44.06,44.06,0,0,0-2.3-4.36c-.21-.32-.41-.67-.61-1-.15-.16-.34-.39-.52-.6s-.28-.35-.36-.43c-.45-.45-.9-.95-1.35-1.44s-.83-.92-1.27-1.35L415,260l0,0-.83-.53c-.54-.35-1.07-.7-1.63-1a16.88,16.88,0,0,0-6.34-2.13c-1.79-.17-4.13.26-7.61,1.4-1.86.61-5.19,2.81-8.09,5.32-.26.24-2.08,2.12-3.44,3.75-1.14,1.37-2.32,2.93-3.62,4.77l-.26.39c-.31.46-.79,1.17-1.05,1.54s-.68,1.11-.68,1.11c-1.21,2.12-2.36,4.32-3.32,6.19C375.3,286.16,370.51,289.72,365.33,290.29Zm62.05-.9h0Z" transform="translate(-25 -34.54)"/><path class="cls-4" d="M228.65,425a182.62,182.62,0,0,1-48.13-6.46,1.5,1.5,0,0,1,.79-2.9A179.76,179.76,0,0,0,282,413.93a1.5,1.5,0,1,1,.89,2.86A183.15,183.15,0,0,1,228.65,425Z" transform="translate(-25 -34.54)"/><path class="cls-4" d="M121.58,353.66a1.5,1.5,0,0,1-1.37-.89c-14.17-31.62-19.32-68.4-14.5-103.56a1.5,1.5,0,1,1,3,.4c-4.74,34.62.33,70.82,14.27,101.94a1.5,1.5,0,0,1-.76,2A1.42,1.42,0,0,1,121.58,353.66Z" transform="translate(-25 -34.54)"/><path class="cls-4" d="M126.41,347.82a1.51,1.51,0,0,1-1.36-.85,114.81,114.81,0,0,1-10-33.33,1.5,1.5,0,1,1,3-.43,111.41,111.41,0,0,0,9.77,32.46,1.51,1.51,0,0,1-1.35,2.15Z" transform="translate(-25 -34.54)"/><path class="cls-4" d="M342.48,365.3a1.49,1.49,0,0,1-1.29-2.25l5.12-8.77a1.49,1.49,0,0,1,2.05-.54,1.51,1.51,0,0,1,.54,2.05l-5.12,8.77A1.49,1.49,0,0,1,342.48,365.3Z" transform="translate(-25 -34.54)"/><path class="cls-4" d="M363.28,284.78a1.49,1.49,0,0,1-1.46-1.18,78.2,78.2,0,0,1,.69-36.19,1.5,1.5,0,1,1,2.9.75,75.37,75.37,0,0,0-.66,34.8,1.51,1.51,0,0,1-1.15,1.79A1.73,1.73,0,0,1,363.28,284.78Z" transform="translate(-25 -34.54)"/><path class="cls-4" d="M428.14,338.9a1.5,1.5,0,0,1-1-2.65c10.35-8.66,17.84-21.92,20.56-36.37a70.14,70.14,0,0,0-5.66-43,1.5,1.5,0,0,1,2.7-1.32,73.26,73.26,0,0,1,5.91,44.92c-2.85,15.12-10.72,29-21.59,38.11A1.46,1.46,0,0,1,428.14,338.9Z" transform="translate(-25 -34.54)"/><path class="cls-4" d="M426.79,333.78a1.5,1.5,0,0,1-1-2.62,43.94,43.94,0,0,0,11-15.5,1.5,1.5,0,0,1,2.76,1.18,46.89,46.89,0,0,1-11.72,16.55A1.47,1.47,0,0,1,426.79,333.78Z" transform="translate(-25 -34.54)"/><path class="cls-4" d="M288.91,399.54a1.5,1.5,0,0,1-.52-2.9c20.56-7.68,39-24.2,50.59-45.31a1.5,1.5,0,0,1,2.63,1.45c-11.93,21.73-30.94,38.74-52.18,46.67A1.54,1.54,0,0,1,288.91,399.54Z" transform="translate(-25 -34.54)"/><path class="cls-5" d="M238.15,238.24a9.32,9.32,0,0,1-7.8,0c-87.73-40.69-83.87-102.17-83.87-102.17-1.78-50.83,61.27-74.61,86.37-30.43a1.62,1.62,0,0,0,2.8,0C244.17,91.38,258.5,82,274.74,82,338.2,89,350.26,184.26,238.15,238.24Z" transform="translate(-25 -34.54)"/><path class="cls-4" d="M234.25,240.6a10.74,10.74,0,0,1-4.53-1c-45.72-21.2-66.32-48.16-75.55-67-9.8-20.05-9.26-35.15-9.19-36.5-1-29.22,18.09-47.83,37.46-53.32,16.29-4.61,38.43-1.21,51.72,22.17h0s.18,0,.2,0c9.11-15.25,24.2-24.36,40.38-24.36h.16c25.57,2.83,44.09,20,48.31,44.67,3.16,18.46-2.12,39.13-14.85,58.22-14.58,21.86-38.63,41.29-69.56,56.18h0A10.71,10.71,0,0,1,234.25,240.6Zm3.9-2.36h0ZM195.1,84a43.42,43.42,0,0,0-11.84,1.65C165,90.79,147,108.38,148,136a.65.65,0,0,1,0,.14c0,.15-.8,15.36,9,35.26,9,18.39,29.22,44.67,74,65.46a7.76,7.76,0,0,0,6.53,0c69.39-33.42,87.94-80.78,82.75-111.18-4-23.33-21.46-39.48-45.6-42.19-15.08,0-29.18,8.59-37.72,22.9a3.13,3.13,0,0,1-5.38,0C222.14,89.83,208,84,195.1,84Z" transform="translate(-25 -34.54)"/><path class="cls-4" d="M184.36,199.12a1.49,1.49,0,0,1-1.06-.44,111.28,111.28,0,0,1-12.51-14.91,1.5,1.5,0,0,1,2.46-1.72,108,108,0,0,0,12.17,14.51,1.51,1.51,0,0,1,0,2.12A1.53,1.53,0,0,1,184.36,199.12Z" transform="translate(-25 -34.54)"/><path class="cls-4" d="M286.91,197.67a1.47,1.47,0,0,1-1-.38,1.49,1.49,0,0,1-.13-2.11A148.59,148.59,0,0,0,311,155.51a1.5,1.5,0,0,1,2.76,1.19A151.56,151.56,0,0,1,288,197.16,1.49,1.49,0,0,1,286.91,197.67Z" transform="translate(-25 -34.54)"/><path class="cls-6" d="M190.75,93.52c-16,3.91-27.76,16.91-32.08,32.5-4.54,16.37,0,33.85,9.09,47.78,7,10.78,24.08.32,17-10.48-6.07-9.31-9.63-20.18-7-31.3,2.26-9.67,9-17,18.73-19.34C209,109.62,203.22,90.47,190.75,93.52Z" transform="translate(-25 -34.54)"/><path class="cls-4" d="M165,173a1.5,1.5,0,0,1-1.32-.8c-5.72-10.75-8.77-22.12-8.84-32.86-.08-12.12,3.64-23.6,10.47-32.35,7.42-9.49,18.57-15.49,29.82-16a1.5,1.5,0,0,1,.15,3c-10.4.51-20.72,6.09-27.61,14.9-6.41,8.21-9.91,19-9.83,30.48.06,10.26,3,21.15,8.49,31.48a1.49,1.49,0,0,1-.62,2A1.53,1.53,0,0,1,165,173Z" transform="translate(-25 -34.54)"/><path class="cls-3" d="M255.51,333.64l-49.79,26.81" transform="translate(-25 -34.54)"/><path class="cls-3" d="M430.15,509" transform="translate(-25 -34.54)"/></g><g id="Capa_3" data-name="Capa 3"><text class="cls-7" transform="translate(127.6 299.23)">TOKEINE</text></g></svg>