<svg id="Capa_1" data-name="Capa 1" xmlns="http://www.w3.org/2000/svg" viewBox="0 0 316.58 50.98"><defs><style>.cls-1{fill:#747cff;}.cls-2{fill:#ffda35;}.cls-3{fill:#8a5d00;}.cls-4{fill:#ffc9f8;}.cls-5{fill:#aaffe5;}.cls-6{fill:#55abff;}.cls-7{fill:#ffdf55;}</style></defs><title>name</title><path class="cls-1" d="M558.58,659.61h-8V652h25.23v7.62h-8v32.9h-9.29Z" transform="translate(-550.59 -642.29)"/><path class="cls-2" d="M624.63,672c0,14.85-4,21.28-14.12,21.28-9.39,0-13.56-6.54-13.56-21.48,0-14.36,4.63-20.54,13.94-20.54C620.44,651.25,624.63,657.9,624.63,672Zm-18-.2c0,10,.91,14.16,4.1,14.16,3.37,0,4.14-3.87,4.14-14.16,0-9.62-.81-13.19-4.14-13.19S606.67,662.35,606.67,671.79Z" transform="translate(-550.59 -642.29)"/><path class="cls-3" d="M652,652h9.08v16.9c2-4.13,5.87-12.35,8.25-16.9h10.3l-9.12,15.87,9.3,24.65H669.68L664,675.87l-2.87,4.37v12.27H652Z" transform="translate(-550.59 -642.29)"/><text x="-550.59" y="-642.29"/><path class="cls-4" d="M726.31,675.34H714V685h13.89l-1.09,7.52H704.91V652h22v7.62H714v8.15h12.27Z" transform="translate(-550.59 -642.29)"/><path class="cls-5" d="M764.44,652v40.52h-9.31V652Z" transform="translate(-550.59 -642.29)"/><path class="cls-6" d="M785.42,692.51V652h10.19c6.16,19.1,7.59,23.69,8,25.54h.16c-.4-5.1-.53-11.78-.53-18.1V652h8.22v40.52h-10c-6.4-21.06-7.61-25.14-8.06-26.89h-.19c.32,4.87.49,12.38.49,19v7.89Z" transform="translate(-550.59 -642.29)"/><path class="cls-7" d="M859.63,675.34H847.36V685h13.89l-1.09,7.52H838.23V652h21.95v7.62H847.36v8.15h12.27Z" transform="translate(-550.59 -642.29)"/></svg>